<svg width="204" height="110" viewBox="0 0 204 110" fill="none" xmlns="http://www.w3.org/2000/svg">
<g filter="url(#filter0_ddd)">
<g clip-path="url(#clip0)">
<path d="M144.193 73.892C145.02 76.6985 144.501 80.8465 144.582 82.8488C144.651 84.5191 144.398 85.8377 144.093 87.3451C143.71 89.2368 143.889 90.6075 146.181 90.461C148.117 90.3373 148.522 89.2628 147.997 87.5405C147.42 85.6521 147.163 83.6172 147.031 81.6474C146.907 79.8111 147.455 76.8548 148.58 75.3376C149.774 73.7259 152.215 73.3287 153.136 71.4501C155.017 67.6017 152.264 64.7268 156.855 62.1221C161.109 59.7062 160.406 62.0472 159.443 65.4007C158.953 67.11 159.268 70.5287 161.962 69.0831C164.533 67.7059 162.597 64.8114 162.166 63.0988C161.42 60.123 163.476 58.8239 164.433 56.3723C164.939 55.0764 164.997 54.0899 164.997 51.0034C160.367 51.0001 58.1585 51.0001 43.0293 51.0034C42.958 51.0034 43.0423 54.8322 43.065 57.4532C43.0844 59.6769 43.1039 62.9751 43.5967 66.3351C44.3295 71.3361 43.2498 75.992 43.3406 81.0418C43.36 82.1195 43.4573 86.3489 45.6978 85.0791C47.0564 84.3107 46.5441 79.3618 46.4793 78.0009C46.3334 74.8427 44.9942 70.4375 46.6155 67.4714C47.8379 65.2347 51.1095 65.2086 52.1503 62.8188C52.9415 61.0086 54.1314 56.7141 56.6508 56.8053C59.8414 56.9192 59.141 61.129 59.1442 63.1379C59.1475 66.3807 59.3355 70.1152 61.8192 72.5636C62.9995 73.7292 64.598 73.7878 65.4184 75.1162C66.6116 77.0599 66.9164 83.1484 66.9228 85.473C66.9261 87.6317 66.2387 89.4256 66.4559 91.6103C66.6894 93.9806 67.6816 94.9606 69.5784 92.828C71.2158 90.9852 69.5525 87.5633 69.2477 85.4209C68.8197 82.4256 68.2717 78.2516 71.8157 76.9655C73.6217 76.3111 73.3656 77.5906 74.5912 78.1181C79.7143 80.3288 79.2506 71.6064 80.4438 69.3208C81.9516 66.4263 84.1434 68.8161 85.8327 69.4543C87.7231 70.1705 89.7334 67.0352 90.5473 70.3398C91.0693 72.4627 89.4254 74.5952 89.7399 76.7376C89.9279 78.0236 90.2554 79.4823 91.6367 79.6158C92.6484 79.7134 94.3312 78.5837 94.5614 77.5841C95.0672 75.4125 93.9551 72.8338 93.5562 70.7143C93.0796 68.178 92.2884 65.2444 93.3098 62.796C94.7754 59.283 98.1281 56.8378 101.854 57.0202C103.663 57.1081 105.751 58.1369 107.239 59.0974C109.353 60.4649 109.113 62.5193 110.774 64.03C114.13 67.0905 115.786 61.816 118.821 62.2458C120.079 62.4249 120.66 63.7891 122.103 63.7337C123.458 63.6816 124.145 62.2653 125.387 62.0439C130.637 61.1063 129.878 69.7277 129.599 72.4464C129.45 73.918 129.362 75.4776 130.857 76.0929C132.219 76.6497 133.925 75.6729 134.135 74.1427C134.437 71.9808 132.154 68.1975 133.681 66.2831C135.604 63.8705 138.004 67.9403 138.866 69.3208C139.881 70.9487 140.234 70.6817 141.904 71.1766C143.104 71.525 143.801 72.5571 144.193 73.892Z" fill="url(#paint0_linear)"/>
</g>
<path d="M48.0515 43.8837C51.9938 38.9026 54.1756 32.4556 53.6502 25.4821C52.68 12.5977 42.2729 2.2038 29.4663 1.3167C14.2081 0.258807 4.00565 -1.37585 4.00565 13.7524C4.00565 20.0523 3.71107 39.6094 7.37889 44.1351C8.86022 45.9615 9.16784 48.49 8.10299 50.5916C7.89002 51.0138 7.67705 51.4407 7.49721 51.9151C5.04095 58.3716 12.192 63.4665 13.4225 58.2435C13.8816 56.2985 12.9871 54.6239 13.9715 54.0356C15.415 53.8933 14.8754 56.9294 14.5489 62.7122C14.0804 65.013 13.7301 66.4884 14.2649 67.7834C14.9322 69.4059 17.6062 70.2692 17.8192 66.6924C17.9138 65.1031 17.7766 63.4712 17.9895 63.0111C18.1741 62.6078 18.6521 62.2995 19.0591 62.4703C20.2518 62.9636 19.9962 67.8356 19.9962 69.1734C19.6649 79.5246 17.8002 84.0123 19.0828 89.7477C19.5277 91.7354 20.4079 93.7136 22.2868 94.7572C23.115 95.2174 24.0994 95.3882 25.0176 95.1605C27.9566 94.4394 28.4156 90.7771 28.3872 87.8691C28.1317 62.328 27.7909 63.0063 29.206 61.2463C29.8969 60.3877 31.1511 60.1268 32.0456 60.7625C32.8738 61.3507 32.8075 62.2094 32.7271 63.0063C31.5912 74.6953 31.0233 76.7162 32.5756 78.0303C33.2288 78.5853 34.1327 78.7751 34.9656 78.5806C37.3367 78.0255 38.837 75.8196 39.3812 73.5283C39.9823 71.0188 39.7172 69.4675 38.8228 56.1941C38.5577 52.2994 41.8753 52.9825 41.5772 55.9332C41.4541 57.1524 41.0471 58.5566 42.0836 59.401C42.8266 60.0082 43.9199 59.8564 44.6298 59.2112C45.8839 58.0727 45.8603 56.3506 45.7372 54.7804C45.6804 54.0593 45.6094 53.343 45.5242 52.6267C45.1551 49.4767 46.0922 46.36 48.0515 43.8837Z" fill="url(#paint1_linear)"/>
<path d="M43.2856 69.4625C43.385 69.9559 43.6122 70.5204 44.0997 70.6153C44.5256 70.7006 44.9279 70.3733 45.1645 70.008C45.6046 69.3391 45.723 68.5042 45.723 67.7025C45.723 67.0052 45.6094 66.2461 45.1077 65.7623C43.0395 63.784 43.1058 68.5706 43.2856 69.4625Z" fill="url(#paint2_linear)"/>
<path d="M7.63919 73.7082C7.49721 74.842 7.39309 76.028 7.95154 77.0764C8.16925 77.4844 8.4958 77.8402 8.90281 78.0584C10.1759 78.7273 11.3733 77.8354 12.0548 76.806C12.8357 75.6153 13.1764 74.1447 13.0013 72.731C12.9209 72.1001 12.1447 69.3723 11.4301 66.9482C11.094 65.8049 9.47073 65.8429 9.18677 67.0004C8.50527 69.7566 7.72437 73.0109 7.63919 73.7082Z" fill="url(#paint3_linear)"/>
<path d="M11.6335 63.044C11.6335 63.7414 11.0703 64.3106 10.3746 64.3106C9.67891 64.3106 9.11572 63.7414 9.11572 63.044C9.11572 62.3467 9.67891 61.7774 10.3746 61.7774C11.0703 61.7774 11.6335 62.3467 11.6335 63.044Z" fill="url(#paint4_linear)"/>
<path d="M16.3 73.4569C16.3 73.8601 15.9734 74.1874 15.5759 74.1874C15.1736 74.1874 14.8518 73.8601 14.8518 73.4569C14.8518 73.0537 15.1784 72.7263 15.5759 72.7263C15.9734 72.7263 16.3 73.0537 16.3 73.4569Z" fill="url(#paint5_linear)"/>
<path d="M45.297 60.9851C45.297 61.2982 45.0462 61.5496 44.7338 61.5496C44.4215 61.5496 44.1707 61.2982 44.1707 60.9851C44.1707 60.672 44.4215 60.4206 44.7338 60.4206C45.0462 60.4206 45.297 60.672 45.297 60.9851Z" fill="url(#paint6_linear)"/>
<path d="M139.42 57.3834C136.336 53.4839 134.629 48.4369 135.04 42.9776C135.799 32.8909 143.941 24.7539 153.961 24.0594C165.899 23.2313 199.979 31.1341 199.979 42.9774C199.979 47.9094 198.253 52.4328 195.384 55.9758C194.225 57.4056 193.984 59.385 194.817 61.0303C194.984 61.3608 195.15 61.695 195.291 62.0664C197.213 67.1209 191.618 71.1095 190.655 67.0206C190.296 65.498 190.996 64.187 190.226 63.7265C189.096 63.6151 189.518 65.9919 189.774 70.519C190.141 72.3202 190.415 73.4752 189.996 74.4891C189.474 75.7592 187.382 76.4351 187.215 73.6349C187.141 72.3908 187.249 71.1133 187.082 70.753C186.938 70.4373 186.564 70.1959 186.245 70.3296C185.312 70.7159 185.512 74.53 185.512 75.5773C185.771 83.6808 187.23 87.194 186.227 91.684C185.879 93.2401 185.19 94.7888 183.72 95.6058C183.072 95.966 182.302 96.0997 181.583 95.9215C179.284 95.357 178.925 92.4899 178.947 90.2134C179.147 70.2182 179.413 70.7493 178.306 69.3715C177.766 68.6993 176.784 68.495 176.084 68.9927C175.436 69.4532 175.488 70.1254 175.551 70.7493C176.44 79.9001 176.884 81.4822 175.67 82.5109C175.159 82.9454 174.451 83.094 173.8 82.9417C171.945 82.5072 170.771 80.7803 170.345 78.9865C169.875 77.0219 170.082 75.8075 170.782 65.4163C170.989 62.3672 168.394 62.902 168.627 65.212C168.723 66.1665 169.042 67.2657 168.231 67.9268C167.649 68.4022 166.794 68.2833 166.239 67.7782C165.257 66.8869 165.276 65.5388 165.372 64.3096C165.417 63.7451 137.711 56.5366 137.778 55.9758C138.067 53.5099 140.953 59.322 139.42 57.3834Z" fill="url(#paint7_linear)"/>
<path d="M153.759 92.2099C153.858 92.7033 154.086 93.2678 154.573 93.3627C154.999 93.4481 155.401 93.1208 155.638 92.7555C156.078 92.0866 156.196 91.2517 156.196 90.4499C156.196 89.7526 156.083 88.9936 155.581 88.5097C153.513 86.5315 153.579 91.3181 153.759 92.2099Z" fill="url(#paint8_linear)"/>
<path d="M118.113 96.4557C117.971 97.5895 117.866 98.7754 118.425 99.8238C118.643 100.232 118.969 100.588 119.376 100.806C120.649 101.475 121.847 100.583 122.528 99.5534C123.309 98.3627 123.65 96.8921 123.475 95.4784C123.394 94.8475 122.618 92.1198 121.903 89.6956C121.567 88.5523 119.944 88.5903 119.66 89.7478C118.979 92.504 118.198 95.7583 118.113 96.4557Z" fill="url(#paint9_linear)"/>
<path d="M122.107 85.7915C122.107 86.4888 121.544 87.0581 120.848 87.0581C120.152 87.0581 119.589 86.4888 119.589 85.7915C119.589 85.0941 120.152 84.5248 120.848 84.5248C121.544 84.5248 122.107 85.0941 122.107 85.7915Z" fill="url(#paint10_linear)"/>
<path d="M126.773 96.2043C126.773 96.6076 126.447 96.9349 126.049 96.9349C125.647 96.9349 125.325 96.6076 125.325 96.2043C125.325 95.8011 125.652 95.4738 126.049 95.4738C126.447 95.4738 126.773 95.8011 126.773 96.2043Z" fill="url(#paint11_linear)"/>
<path d="M155.77 83.7326C155.77 84.0456 155.52 84.2971 155.207 84.2971C154.895 84.2971 154.644 84.0456 154.644 83.7326C154.644 83.4195 154.895 83.168 155.207 83.168C155.52 83.168 155.77 83.4195 155.77 83.7326Z" fill="url(#paint12_linear)"/>
</g>
<defs>
<filter id="filter0_ddd" x="0" y="0.672974" width="203.979" height="108.364" filterUnits="userSpaceOnUse" color-interpolation-filters="sRGB">
<feFlood flood-opacity="0" result="BackgroundImageFix"/>
<feColorMatrix in="SourceAlpha" type="matrix" values="0 0 0 0 0 0 0 0 0 0 0 0 0 0 0 0 0 0 127 0" result="hardAlpha"/>
<feOffset dy="4"/>
<feGaussianBlur stdDeviation="2"/>
<feComposite in2="hardAlpha" operator="out"/>
<feColorMatrix type="matrix" values="0 0 0 0 0 0 0 0 0 0 0 0 0 0 0 0 0 0 0.25 0"/>
<feBlend mode="normal" in2="BackgroundImageFix" result="effect1_dropShadow"/>
<feColorMatrix in="SourceAlpha" type="matrix" values="0 0 0 0 0 0 0 0 0 0 0 0 0 0 0 0 0 0 127 0" result="hardAlpha"/>
<feOffset dy="4"/>
<feGaussianBlur stdDeviation="2"/>
<feComposite in2="hardAlpha" operator="out"/>
<feColorMatrix type="matrix" values="0 0 0 0 0 0 0 0 0 0 0 0 0 0 0 0 0 0 0.25 0"/>
<feBlend mode="normal" in2="effect1_dropShadow" result="effect2_dropShadow"/>
<feColorMatrix in="SourceAlpha" type="matrix" values="0 0 0 0 0 0 0 0 0 0 0 0 0 0 0 0 0 0 127 0" result="hardAlpha"/>
<feOffset dy="4"/>
<feGaussianBlur stdDeviation="2"/>
<feComposite in2="hardAlpha" operator="out"/>
<feColorMatrix type="matrix" values="0 0 0 0 0 0 0 0 0 0 0 0 0 0 0 0 0 0 0.25 0"/>
<feBlend mode="normal" in2="effect2_dropShadow" result="effect3_dropShadow"/>
<feBlend mode="normal" in="SourceGraphic" in2="effect3_dropShadow" result="shape"/>
</filter>
<linearGradient id="paint0_linear" x1="104.951" y1="93.3807" x2="103.839" y2="54.8953" gradientUnits="userSpaceOnUse">
<stop stop-color="#780000"/>
<stop offset="1" stop-color="#CE0101"/>
</linearGradient>
<linearGradient id="paint1_linear" x1="25.7938" y1="112.548" x2="27.4114" y2="37.5123" gradientUnits="userSpaceOnUse">
<stop offset="0.2626" stop-color="#780000"/>
<stop offset="1" stop-color="#EC0000"/>
</linearGradient>
<linearGradient id="paint2_linear" x1="43.4989" y1="112.929" x2="45.1164" y2="37.8938" gradientUnits="userSpaceOnUse">
<stop offset="0.2626" stop-color="#780000"/>
<stop offset="1" stop-color="#EC0000"/>
</linearGradient>
<linearGradient id="paint3_linear" x1="9.47002" y1="112.196" x2="11.0876" y2="37.16" gradientUnits="userSpaceOnUse">
<stop offset="0.2626" stop-color="#780000"/>
<stop offset="1" stop-color="#EC0000"/>
</linearGradient>
<linearGradient id="paint4_linear" x1="9.32003" y1="112.193" x2="10.9375" y2="37.157" gradientUnits="userSpaceOnUse">
<stop offset="0.2626" stop-color="#780000"/>
<stop offset="1" stop-color="#EC0000"/>
</linearGradient>
<linearGradient id="paint5_linear" x1="14.7413" y1="112.309" x2="16.3589" y2="37.2736" gradientUnits="userSpaceOnUse">
<stop offset="0.2626" stop-color="#780000"/>
<stop offset="1" stop-color="#EC0000"/>
</linearGradient>
<linearGradient id="paint6_linear" x1="43.6207" y1="112.932" x2="45.2382" y2="37.8962" gradientUnits="userSpaceOnUse">
<stop offset="0.2626" stop-color="#780000"/>
<stop offset="1" stop-color="#EC0000"/>
</linearGradient>
<linearGradient id="paint7_linear" x1="180.976" y1="109.533" x2="179.709" y2="50.7911" gradientUnits="userSpaceOnUse">
<stop offset="0.2626" stop-color="#780000"/>
<stop offset="1" stop-color="#EC0000"/>
</linearGradient>
<linearGradient id="paint8_linear" x1="153.972" y1="135.677" x2="155.59" y2="60.6412" gradientUnits="userSpaceOnUse">
<stop offset="0.2626" stop-color="#780000"/>
<stop offset="1" stop-color="#EC0000"/>
</linearGradient>
<linearGradient id="paint9_linear" x1="119.943" y1="134.943" x2="121.561" y2="59.9074" gradientUnits="userSpaceOnUse">
<stop offset="0.2626" stop-color="#780000"/>
<stop offset="1" stop-color="#EC0000"/>
</linearGradient>
<linearGradient id="paint10_linear" x1="119.793" y1="134.94" x2="121.411" y2="59.9045" gradientUnits="userSpaceOnUse">
<stop offset="0.2626" stop-color="#780000"/>
<stop offset="1" stop-color="#EC0000"/>
</linearGradient>
<linearGradient id="paint11_linear" x1="125.215" y1="135.057" x2="126.832" y2="60.0211" gradientUnits="userSpaceOnUse">
<stop offset="0.2626" stop-color="#780000"/>
<stop offset="1" stop-color="#EC0000"/>
</linearGradient>
<linearGradient id="paint12_linear" x1="154.094" y1="135.679" x2="155.712" y2="60.6437" gradientUnits="userSpaceOnUse">
<stop offset="0.2626" stop-color="#780000"/>
<stop offset="1" stop-color="#EC0000"/>
</linearGradient>
<clipPath id="clip0">
<rect width="122" height="43" fill="white" transform="translate(43 51)"/>
</clipPath>
</defs>
</svg>
