<svg width="30" height="30" viewBox="0 0 30 30" fill="none" xmlns="http://www.w3.org/2000/svg">
<path d="M18.7124 12.021C19.08 12.0211 19.4348 12.1562 19.7094 12.4007C19.984 12.6451 20.1592 12.9819 20.2019 13.347L20.2124 13.521V20.073C20.2222 21.4408 19.6954 22.7579 18.745 23.7416C17.7946 24.7253 16.4964 25.2972 15.1291 25.3345C13.7617 25.3718 12.4343 24.8716 11.4317 23.9412C10.4291 23.0107 9.83118 21.7243 9.76639 20.358L9.75889 20.073V13.521C9.75898 13.1534 9.89408 12.7986 10.1385 12.524C10.383 12.2494 10.7197 12.0742 11.0849 12.0315L11.2589 12.021H18.7124ZM8.66239 12.021C8.44414 12.3976 8.31102 12.8175 8.27239 13.251L8.25889 13.521V20.073L8.26639 20.388C8.31139 21.3525 8.55889 22.263 8.96839 23.0805C8.33677 23.3458 7.65074 23.4557 6.96785 23.4011C6.28497 23.3464 5.62514 23.1288 5.04374 22.7665C4.46233 22.4042 3.9763 21.9077 3.62641 21.3187C3.27653 20.7297 3.073 20.0654 3.03289 19.3815L3.02539 19.1295V13.521C3.02544 13.1536 3.16032 12.799 3.40446 12.5245C3.6486 12.2499 3.98501 12.0745 4.34989 12.0315L4.52539 12.021H8.66089H8.66239ZM21.3104 12.021H25.4864C25.854 12.0211 26.2088 12.1562 26.4834 12.4007C26.758 12.6451 26.9332 12.9819 26.9759 13.347L26.9864 13.521V19.131C26.9864 19.8404 26.8103 20.5387 26.4739 21.1632C26.1375 21.7877 25.6512 22.3188 25.0588 22.709C24.4664 23.0992 23.7864 23.3362 23.0797 23.3987C22.3731 23.4611 21.6621 23.3472 21.0104 23.067C21.4135 22.2576 21.6482 21.3748 21.7004 20.472L21.7124 20.073V13.521L21.7034 13.2975C21.6706 12.8478 21.5363 12.4113 21.3104 12.021ZM14.9834 4.48352C15.8695 4.48352 16.7194 4.83554 17.346 5.46215C17.9726 6.08876 18.3246 6.93862 18.3246 7.82477C18.3246 8.71092 17.9726 9.56078 17.346 10.1874C16.7194 10.814 15.8695 11.166 14.9834 11.166C14.0972 11.166 13.2474 10.814 12.6208 10.1874C11.9942 9.56078 11.6421 8.71092 11.6421 7.82477C11.6421 6.93862 11.9942 6.08876 12.6208 5.46215C13.2474 4.83554 14.0972 4.48352 14.9834 4.48352ZM22.4639 5.42552C23.2251 5.42552 23.9552 5.72792 24.4935 6.2662C25.0317 6.80447 25.3341 7.53453 25.3341 8.29577C25.3341 9.05701 25.0317 9.78707 24.4935 10.3253C23.9552 10.8636 23.2251 11.166 22.4639 11.166C21.7027 11.166 20.9726 10.8636 20.4343 10.3253C19.896 9.78707 19.5936 9.05701 19.5936 8.29577C19.5936 7.53453 19.896 6.80447 20.4343 6.2662C20.9726 5.72792 21.7027 5.42552 22.4639 5.42552ZM7.52539 5.42552C8.28663 5.42552 9.01669 5.72792 9.55496 6.2662C10.0932 6.80447 10.3956 7.53453 10.3956 8.29577C10.3956 9.05701 10.0932 9.78707 9.55496 10.3253C9.01669 10.8636 8.28663 11.166 7.52539 11.166C6.76415 11.166 6.03409 10.8636 5.49582 10.3253C4.95754 9.78707 4.65514 9.05701 4.65514 8.29577C4.65514 7.53453 4.95754 6.80447 5.49582 6.2662C6.03409 5.72792 6.76415 5.42552 7.52539 5.42552Z" fill="#FD5252"/>
</svg>
